<svg width="50" height="50" viewBox="0 0 50 50" fill="none" xmlns="http://www.w3.org/2000/svg">
<path d="M48.3277 35.6294V33.3295H49.1609C49.3908 33.3311 49.6109 33.2375 49.7692 33.0711C49.9107 32.9129 49.9909 32.7086 49.9941 32.4963L48.5026 4.16621C48.3606 1.87319 46.459 0.0858765 44.1615 0.0858765C41.864 0.0858765 39.9624 1.87319 39.8204 4.16621L38.3288 32.4963C38.3219 32.7233 38.4025 32.9438 38.5538 33.113C38.719 33.264 38.9383 33.3421 39.1621 33.3295H39.9953V35.6294L38.4204 38.7874C38.3016 39.023 38.3016 39.3013 38.4204 39.5373L43.4198 49.5361C43.4605 49.6281 43.5203 49.7102 43.5947 49.7778C43.692 49.8677 43.8092 49.9336 43.9365 49.9694H44.3946C44.5224 49.9336 44.6395 49.8677 44.7364 49.7778C44.8112 49.7102 44.8706 49.6281 44.9113 49.5361L49.9107 39.5373C50.0295 39.3013 50.0295 39.023 49.9107 38.7874L48.3277 35.6294ZM40.0368 31.663L40.3871 24.9971H47.9359L48.3277 31.663H40.0368ZM41.4868 4.20812C41.4868 2.73083 42.6842 1.53306 44.1615 1.53306C45.6388 1.53306 46.8362 2.73083 46.8362 4.20812L47.8443 23.3726H40.4787L40.5702 21.7061H45.2112C45.6717 21.7061 46.0444 21.333 46.0444 20.8729C46.0444 20.4123 45.6717 20.0396 45.2112 20.0396H40.6536L41.4868 4.20812ZM46.6612 33.3295V34.996H41.6618V33.3295H46.6612ZM44.9947 45.6283V39.9954H45.828C46.2881 39.9954 46.6612 39.6223 46.6612 39.1621C46.6612 38.702 46.2881 38.3289 45.828 38.3289H42.495C42.0349 38.3289 41.6618 38.702 41.6618 39.1621C41.6618 39.6223 42.0349 39.9954 42.495 39.9954H43.3283V45.6283L40.0954 39.1621L41.3453 36.6624H46.9777L48.2276 39.1621L44.9947 45.6283Z" fill="#FFBB01"/>
<path d="M28.3301 10.8321C28.7902 10.8321 29.1633 10.459 29.1633 9.99888C29.1633 9.53873 28.7902 9.16565 28.3301 9.16565H6.66594C6.20579 9.16565 5.8327 9.53873 5.8327 9.99888V13.3318C5.8327 13.792 6.20579 14.1651 6.66594 14.1651H28.3301C28.7902 14.1651 29.1633 13.792 29.1633 13.3318C29.1633 12.8717 28.7902 12.4986 28.3301 12.4986H7.49917V10.8321H28.3301Z" fill="#FFBB01"/>
<path d="M29.1633 18.3312C29.1633 17.8711 28.7902 17.498 28.3301 17.498H9.99889C9.53873 17.498 9.16565 17.8711 9.16565 18.3312C9.16565 18.7914 9.53873 19.1645 9.99889 19.1645H28.3301C28.7902 19.1645 29.1633 18.7914 29.1633 18.3312Z" fill="#FFBB01"/>
<path d="M4.99945 22.4974C4.99945 22.9575 5.37254 23.3306 5.83269 23.3306H19.1645C19.6246 23.3306 19.9977 22.9575 19.9977 22.4974C19.9977 22.0372 19.6246 21.6641 19.1645 21.6641H5.83269C5.37254 21.6641 4.99945 22.0372 4.99945 22.4974Z" fill="#FFBB01"/>
<path d="M24.1639 21.6641C23.7038 21.6641 23.3307 22.0372 23.3307 22.4974C23.3307 22.9575 23.7038 23.3306 24.1639 23.3306H27.4969C27.957 23.3306 28.3301 22.9575 28.3301 22.4974C28.3301 22.0372 27.957 21.6641 27.4969 21.6641H24.1639Z" fill="#FFBB01"/>
<path d="M16.6648 26.6635C16.6648 26.2034 16.2917 25.8303 15.8315 25.8303H5.83269C5.37254 25.8303 4.99945 26.2034 4.99945 26.6635C4.99945 27.1237 5.37254 27.4968 5.83269 27.4968H15.8315C16.2917 27.4968 16.6648 27.1237 16.6648 26.6635Z" fill="#FFBB01"/>
<path d="M15.8315 30.8298C15.8315 30.3697 15.4584 29.9966 14.9983 29.9966H5.83269C5.37254 29.9966 4.99945 30.3697 4.99945 30.8298C4.99945 31.29 5.37254 31.6631 5.83269 31.6631H14.9983C15.4584 31.6631 15.8315 31.29 15.8315 30.8298Z" fill="#FFBB01"/>
<path d="M5.83269 34.1627C5.37254 34.1627 4.99945 34.5358 4.99945 34.996C4.99945 35.4561 5.37254 35.8292 5.83269 35.8292H11.6653C12.1255 35.8292 12.4986 35.4561 12.4986 34.996C12.4986 34.5358 12.1255 34.1627 11.6653 34.1627H5.83269Z" fill="#FFBB01"/>
<path d="M32.4962 0H2.49971C1.11925 0 0 1.11925 0 2.49971V40.8286C0 42.209 1.11925 43.3283 2.49971 43.3283H16.6647C17.1249 43.3283 17.498 42.9552 17.498 42.4951C17.498 42.0349 17.1249 41.6618 16.6647 41.6618H2.49971C2.03956 41.6618 1.66647 41.2887 1.66647 40.8286V7.49913H33.3295V40.8286C33.3295 41.2887 32.9564 41.6618 32.4962 41.6618H29.9965C29.5364 41.6618 29.1633 42.0349 29.1633 42.4951C29.1633 42.9552 29.5364 43.3283 29.9965 43.3283H32.4962C33.8767 43.3283 34.9959 42.209 34.9959 40.8286V2.49971C34.9959 1.11925 33.8767 0 32.4962 0ZM1.66647 5.83266V2.49971C1.66647 2.03956 2.03956 1.66647 2.49971 1.66647H32.4962C32.9564 1.66647 33.3295 2.03956 33.3295 2.49971V5.83266H1.66647Z" fill="#FFBB01"/>
<path d="M23.3306 30.8297C21.9501 30.8297 20.8309 31.949 20.8309 33.3294C20.8309 34.7099 21.9501 35.8291 23.3306 35.8291C24.711 35.8291 25.8303 34.7099 25.8303 33.3294C25.8303 31.949 24.711 30.8297 23.3306 30.8297ZM23.3306 34.1627C22.8704 34.1627 22.4973 33.7896 22.4973 33.3294C22.4973 32.8693 22.8704 32.4962 23.3306 32.4962C23.7907 32.4962 24.1638 32.8693 24.1638 33.3294C24.1638 33.7896 23.7907 34.1627 23.3306 34.1627Z" fill="#FFBB01"/>
<path d="M29.9965 33.3294C29.9953 32.4034 29.4826 31.5535 28.6632 31.1214C28.9358 30.2361 28.6966 29.2731 28.042 28.6181C27.3869 27.9634 26.4239 27.7242 25.5386 27.9968C25.1049 27.1798 24.2558 26.6688 23.3306 26.6688C22.4054 26.6688 21.5563 27.1798 21.1226 27.9968C20.2373 27.7242 19.2743 27.9634 18.6192 28.6181C17.9646 29.2731 17.7254 30.2361 17.998 31.1214C17.1806 31.5551 16.67 32.4042 16.67 33.3294C16.67 34.2546 17.1806 35.1041 17.998 35.5374C17.7254 36.4207 17.9626 37.3821 18.6143 38.0371C18.7771 38.1995 18.9622 38.337 19.1644 38.4456V49.1609C19.166 49.4974 19.3699 49.7997 19.6811 49.9274C19.9911 50.058 20.3496 49.9889 20.5892 49.7525L23.3306 47.003L26.072 49.7525C26.229 49.9087 26.4422 49.9954 26.6635 49.9942C26.773 49.997 26.8812 49.9742 26.9801 49.9274C27.2913 49.7997 27.4951 49.4974 27.4968 49.1609V38.4538C27.699 38.3451 27.8841 38.2076 28.0468 38.0457C28.6986 37.3902 28.9358 36.4293 28.6632 35.546C29.4851 35.1123 29.9985 34.2587 29.9965 33.3294ZM23.9222 45.2364C23.7659 45.0786 23.5527 44.9899 23.3306 44.9899C23.1084 44.9899 22.8953 45.0786 22.739 45.2364L20.8309 47.1527V38.7373L21.1226 38.6621C21.5563 39.4794 22.4054 39.99 23.3306 39.99C24.2558 39.99 25.1049 39.4794 25.5386 38.6621L25.8303 38.7373V47.1527L23.9222 45.2364ZM27.4968 34.1627H27.3552C27.0159 34.161 26.7091 34.3653 26.5801 34.6794C26.452 34.9914 26.5244 35.3499 26.7636 35.5875L26.8637 35.6876C27.1867 36.0126 27.1867 36.5375 26.8637 36.8625C26.7718 36.959 26.657 37.0306 26.5301 37.0709H26.4052C26.1428 37.1115 25.8767 37.0249 25.6887 36.8373L25.5886 36.7372C25.3502 36.4972 24.9901 36.4248 24.6777 36.5546C24.3648 36.6843 24.1618 36.9907 24.1638 37.3292V37.4956C24.1638 37.9558 23.7907 38.3289 23.3306 38.3289C22.8704 38.3289 22.4974 37.9558 22.4974 37.4956V37.354C22.499 37.0147 22.2947 36.7079 21.9806 36.579C21.8802 36.5391 21.7723 36.5196 21.6641 36.5208C21.4428 36.5196 21.2296 36.6066 21.0725 36.7625L20.9725 36.8625C20.7845 37.0501 20.5184 37.1368 20.256 37.0957H20.1311C20.0041 37.0558 19.8894 36.9842 19.7975 36.8874C19.4744 36.5623 19.4744 36.0375 19.7975 35.7124L19.9061 35.6127C20.1453 35.3747 20.2177 35.0162 20.0892 34.7042C19.9602 34.3905 19.6538 34.1859 19.3145 34.1879H19.1644C18.7043 34.1879 18.3312 33.8148 18.3312 33.3547C18.3312 32.8941 18.7043 32.5214 19.1644 32.5214H19.306C19.6453 32.523 19.9521 32.3184 20.081 32.0047C20.2092 31.6927 20.1368 31.3342 19.8976 31.0962L19.7975 30.9965C19.4708 30.6719 19.4691 30.1442 19.7934 29.8175C20.1181 29.4908 20.6458 29.4887 20.9725 29.8134L21.0725 29.9216C21.3102 30.1609 21.669 30.2333 21.9806 30.1047C22.2947 29.9757 22.499 29.6694 22.4974 29.3301V29.1632C22.4974 28.7031 22.8704 28.33 23.3306 28.33C23.7907 28.33 24.1638 28.7031 24.1638 29.1632V29.3048C24.1622 29.6446 24.3664 29.9509 24.6805 30.0799C24.9922 30.208 25.351 30.136 25.5886 29.8964L25.6887 29.7967C26.013 29.47 26.5411 29.468 26.8678 29.7922C27.1945 30.1169 27.1961 30.6446 26.8718 30.9713L26.7636 31.0714C26.5244 31.309 26.452 31.6678 26.5801 31.9795C26.7091 32.2936 27.0159 32.4978 27.3552 32.4962H27.4968C27.9569 32.4962 28.33 32.8693 28.33 33.3294C28.33 33.7896 27.9569 34.1627 27.4968 34.1627Z" fill="#FFBB01"/>
</svg>
